<svg xmlns="http://www.w3.org/2000/svg" xmlns:xlink="http://www.w3.org/1999/xlink" width="1920" zoomAndPan="magnify" viewBox="0 0 1440 809.999993" height="1080" preserveAspectRatio="xMidYMid meet" version="1.0"><defs><clipPath id="4ee6bd3a73"><path d="M 965.007812 250.097656 L 1202 250.097656 L 1202 379.089844 L 965.007812 379.089844 Z M 965.007812 250.097656 " clip-rule="nonzero"/></clipPath><clipPath id="fbf35886b8"><path d="M 1150 122.886719 L 1229 122.886719 L 1229 349 L 1150 349 Z M 1150 122.886719 " clip-rule="nonzero"/></clipPath><clipPath id="179af6914c"><path d="M 1206 201 L 1344.566406 201 L 1344.566406 323 L 1206 323 Z M 1206 201 " clip-rule="nonzero"/></clipPath></defs><rect x="-144" width="1728" fill="#ffffff" y="-80.999999" height="971.999992" fill-opacity="1"/><rect x="-144" width="1728" fill="#ffffff" y="-80.999999" height="971.999992" fill-opacity="1"/><rect x="-144" width="1728" fill="#ffffff" y="-80.999999" height="971.999992" fill-opacity="1"/><rect x="-144" width="1728" fill="#191919" y="-80.999999" height="971.999992" fill-opacity="1"/><path fill="#deff36" d="M 127.175781 360.90625 L 75.183594 360.90625 L 75.183594 201.175781 C 84.203125 199.542969 93.59375 198.085938 103.355469 196.824219 C 113.164062 195.515625 122.28125 194.503906 130.734375 193.761719 C 139.234375 193.042969 146.179688 192.671875 151.589844 192.671875 C 161.722656 192.671875 171.40625 193.636719 180.648438 195.539062 C 189.867188 197.46875 198.09375 200.828125 205.359375 205.621094 C 212.675781 210.441406 218.40625 216.890625 222.558594 224.996094 C 226.710938 233.101562 228.785156 243.453125 228.785156 256.03125 L 228.785156 360.90625 L 176.695312 360.90625 L 176.695312 262.0625 C 176.695312 253.757812 174.472656 247.878906 170.074219 244.367188 C 165.648438 240.882812 158.828125 239.128906 149.613281 239.128906 C 143.535156 239.128906 136.070312 239.871094 127.175781 241.304688 Z M 127.175781 360.90625 " fill-opacity="1" fill-rule="nonzero"/><path fill="#deff36" d="M 321.78125 193.761719 C 337.25 193.761719 350.667969 195.738281 362.007812 199.691406 C 373.328125 203.644531 382.097656 210.34375 388.300781 219.757812 C 394.480469 229.195312 397.59375 242.195312 397.59375 258.800781 L 397.59375 357.546875 C 386.523438 359.992188 374.191406 361.917969 360.625 363.375 C 347.035156 364.882812 334.359375 365.648438 322.570312 365.648438 C 306.359375 365.648438 292.175781 363.996094 280.066406 360.707031 C 268.007812 357.347656 258.644531 351.863281 251.996094 344.199219 C 245.324219 336.492188 242.011719 326.113281 242.011719 313.066406 L 242.011719 312.769531 C 242.011719 295.445312 248.5625 282.769531 261.683594 274.714844 C 274.78125 266.683594 291.953125 262.65625 313.179688 262.65625 C 318.714844 262.65625 324.078125 262.804688 329.292969 263.050781 C 334.554688 263.320312 340.066406 263.914062 345.800781 264.828125 L 345.800781 260.480469 C 345.800781 251.585938 342.585938 245.457031 336.210938 242.09375 C 329.886719 238.683594 321.285156 236.957031 310.414062 236.957031 C 302.828125 236.957031 293.757812 237.84375 283.230469 239.625 C 272.753906 241.355469 263.066406 243.75 254.171875 246.839844 L 266.132812 201.472656 C 269.8125 200.234375 274.65625 199.050781 280.660156 197.914062 C 286.640625 196.800781 293.238281 195.835938 300.429688 195.046875 C 307.597656 194.207031 314.710938 193.761719 321.78125 193.761719 Z M 295.488281 309.40625 L 295.488281 309.703125 C 295.488281 315.636719 298.082031 319.984375 303.296875 322.753906 C 308.558594 325.519531 315.703125 326.902344 324.746094 326.902344 C 328.105469 326.902344 331.566406 326.78125 335.125 326.507812 C 338.730469 326.1875 342.289062 325.867188 345.800781 325.519531 L 345.800781 294.484375 C 342.289062 293.765625 338.632812 293.273438 334.828125 293 C 331.070312 292.679688 327.710938 292.507812 324.746094 292.507812 C 315.703125 292.507812 308.558594 293.765625 303.296875 296.261719 C 298.082031 298.78125 295.488281 303.15625 295.488281 309.40625 Z M 295.488281 309.40625 " fill-opacity="1" fill-rule="nonzero"/><path fill="#deff36" d="M 413.902344 136.429688 L 465.894531 136.429688 L 465.894531 360.90625 L 413.902344 360.90625 Z M 413.902344 136.429688 " fill-opacity="1" fill-rule="nonzero"/><path fill="#deff36" d="M 558.917969 365.648438 C 548.367188 365.648438 538.851562 365.082031 530.351562 363.96875 C 521.902344 362.832031 513.894531 361.003906 506.332031 358.433594 C 498.746094 355.863281 490.914062 352.554688 482.808594 348.453125 L 482.808594 136.429688 L 534.800781 136.429688 L 534.800781 195.933594 C 539.074219 195.019531 543.351562 194.253906 547.648438 193.660156 C 552 193.019531 556.472656 192.671875 561.09375 192.671875 C 579.527344 192.671875 595.34375 196.378906 608.539062 203.746094 C 621.78125 211.132812 631.914062 221.3125 638.980469 234.285156 C 646.097656 247.285156 649.65625 262.0625 649.65625 278.667969 L 649.65625 279.261719 C 649.65625 295.867188 645.949219 310.691406 638.585938 323.742188 C 631.199219 336.738281 620.71875 346.96875 607.152344 354.480469 C 593.636719 361.917969 577.550781 365.648438 558.917969 365.648438 Z M 558.917969 319.09375 C 571.421875 319.09375 580.960938 315.289062 587.484375 307.628906 C 594.058594 299.992188 597.367188 290.527344 597.367188 279.261719 L 597.367188 278.667969 C 597.367188 267.277344 594.058594 257.859375 587.484375 250.398438 C 580.960938 242.886719 571.421875 239.128906 558.917969 239.128906 C 554.816406 239.128906 550.714844 239.476562 546.5625 240.117188 C 542.410156 240.785156 538.480469 241.578125 534.800781 242.492188 L 534.800781 315.832031 C 541.964844 318.007812 550.023438 319.09375 558.917969 319.09375 Z M 558.917969 319.09375 " fill-opacity="1" fill-rule="nonzero"/><path fill="#deff36" d="M 740.15625 365.648438 C 730 365.648438 720.316406 364.613281 711.097656 362.585938 C 701.855469 360.558594 693.601562 357.199219 686.289062 352.503906 C 679.023438 347.757812 673.339844 341.308594 669.1875 333.128906 C 665.035156 324.902344 662.960938 314.597656 662.960938 302.191406 L 662.960938 199.59375 L 714.953125 199.59375 L 714.953125 298.042969 C 714.953125 306.542969 717.175781 312.523438 721.675781 315.933594 C 726.222656 319.367188 733.042969 321.070312 742.136719 321.070312 C 745.222656 321.070312 748.707031 320.921875 752.613281 320.578125 C 756.492188 320.183594 760.445312 319.589844 764.472656 318.796875 L 764.472656 199.59375 L 816.5625 199.59375 L 816.5625 356.753906 C 807.519531 358.410156 798.105469 359.867188 788.296875 361.101562 C 778.535156 362.414062 769.414062 363.5 760.914062 364.367188 C 752.414062 365.207031 745.496094 365.648438 740.15625 365.648438 Z M 740.15625 365.648438 " fill-opacity="1" fill-rule="nonzero"/><path fill="#deff36" d="M 885.144531 360.90625 L 833.152344 360.90625 L 833.152344 205.621094 C 841.453125 203.992188 850.003906 202.707031 858.851562 201.765625 C 867.746094 200.851562 876.050781 200.261719 883.757812 199.988281 C 891.519531 199.742188 897.894531 199.59375 902.835938 199.59375 L 935.257812 199.59375 L 935.257812 247.730469 L 910.941406 247.730469 C 909.410156 247.730469 906.742188 247.828125 902.933594 248.027344 C 899.179688 248.175781 895.472656 248.324219 891.863281 248.519531 C 888.304688 248.71875 886.058594 248.914062 885.144531 249.113281 Z M 885.144531 360.90625 " fill-opacity="1" fill-rule="nonzero"/><path fill="#deff36" d="M 390.71875 601.054688 C 372.261719 601.054688 356.246094 597.324219 342.679688 589.886719 C 329.089844 582.375 318.5625 572.144531 311.050781 559.148438 C 303.589844 546.097656 299.882812 531.273438 299.882812 514.667969 L 299.882812 514.074219 C 299.882812 497.46875 303.441406 482.691406 310.558594 469.691406 C 317.675781 456.71875 327.804688 446.539062 341 439.148438 C 354.171875 431.785156 369.988281 428.078125 388.445312 428.078125 C 393.042969 428.078125 397.5625 428.425781 401.988281 429.066406 C 406.460938 429.660156 410.710938 430.425781 414.738281 431.339844 L 414.738281 371.835938 L 466.828125 371.835938 L 466.828125 583.859375 C 454.96875 590.132812 443.253906 594.53125 431.738281 597.101562 C 420.199219 599.722656 406.535156 601.054688 390.71875 601.054688 Z M 390.71875 554.5 C 399.542969 554.5 407.546875 553.414062 414.738281 551.238281 L 414.738281 477.898438 C 411.230469 476.984375 407.351562 476.191406 403.074219 475.523438 C 398.847656 474.882812 394.722656 474.535156 390.71875 474.535156 C 378.117188 474.535156 368.527344 478.292969 361.957031 485.804688 C 355.433594 493.265625 352.171875 502.683594 352.171875 514.074219 L 352.171875 514.667969 C 352.171875 525.933594 355.433594 535.398438 361.957031 543.035156 C 368.527344 550.695312 378.117188 554.5 390.71875 554.5 Z M 390.71875 554.5 " fill-opacity="1" fill-rule="nonzero"/><path fill="#deff36" d="M 650.242188 522.179688 L 650.242188 524.945312 L 534.003906 524.945312 C 536.425781 533.59375 541.019531 540.859375 547.742188 546.792969 C 554.464844 552.671875 562.890625 555.589844 573.046875 555.589844 C 582.460938 555.589844 591.257812 554.15625 599.4375 551.238281 C 607.667969 548.273438 614.660156 544.765625 620.394531 540.664062 L 643.027344 580.792969 C 634.578125 586.007812 624.542969 590.652344 612.882812 594.730469 C 601.265625 598.734375 587.328125 600.761719 571.070312 600.761719 C 552.609375 600.761719 536.574219 597.152344 522.933594 589.984375 C 509.292969 582.746094 498.714844 572.640625 491.203125 559.640625 C 483.742188 546.667969 480.035156 531.667969 480.035156 514.667969 L 480.035156 514.074219 C 480.035156 497.148438 483.519531 482.296875 490.511719 469.496094 C 497.554688 456.644531 507.539062 446.5625 520.460938 439.25 C 533.359375 431.933594 548.484375 428.277344 565.832031 428.277344 C 583.152344 428.277344 598.078125 431.933594 610.609375 439.25 C 623.183594 446.5625 632.945312 457.238281 639.863281 471.273438 C 646.785156 485.261719 650.242188 502.210938 650.242188 522.179688 Z M 565.335938 469.296875 C 557.355469 469.296875 550.632812 471.941406 545.171875 477.207031 C 539.761719 482.417969 536.03125 488.917969 534.003906 496.675781 L 597.660156 496.675781 C 596.199219 488.570312 592.644531 482 586.984375 476.910156 C 581.375 471.84375 574.160156 469.296875 565.335938 469.296875 Z M 565.335938 469.296875 " fill-opacity="1" fill-rule="nonzero"/><path fill="#deff36" d="M 715.539062 657.199219 L 663.546875 657.199219 L 663.546875 445.179688 C 673.285156 440.980469 684.503906 437.074219 697.15625 433.515625 C 709.808594 429.910156 723.964844 428.078125 739.65625 428.078125 C 758.09375 428.078125 774.082031 431.8125 787.597656 439.25 C 801.164062 446.710938 811.664062 456.894531 819.128906 469.792969 C 826.640625 482.714844 830.398438 497.566406 830.398438 514.371094 L 830.398438 514.964844 C 830.398438 531.570312 826.839844 546.347656 819.722656 559.246094 C 812.652344 572.167969 802.523438 582.324219 789.277344 589.6875 C 776.082031 597.054688 760.265625 600.761719 741.832031 600.761719 C 737.210938 600.761719 732.738281 600.414062 728.390625 599.769531 C 724.089844 599.105469 719.816406 598.3125 715.539062 597.398438 Z M 739.65625 554.203125 C 752.160156 554.203125 761.699219 550.496094 768.222656 543.035156 C 774.796875 535.597656 778.109375 526.230469 778.109375 514.964844 L 778.109375 514.371094 C 778.109375 502.980469 774.796875 493.488281 768.222656 485.902344 C 761.699219 478.34375 752.160156 474.535156 739.65625 474.535156 C 735.359375 474.535156 731.183594 474.785156 727.105469 475.226562 C 723.078125 475.699219 719.222656 476.488281 715.539062 477.601562 L 715.539062 550.941406 C 719.222656 551.683594 723.152344 552.402344 727.300781 553.117188 C 731.453125 553.859375 735.554688 554.203125 739.65625 554.203125 Z M 739.65625 554.203125 " fill-opacity="1" fill-rule="nonzero"/><path fill="#deff36" d="M 931.179688 601.054688 C 913.238281 601.054688 897.472656 597.324219 883.832031 589.886719 C 870.191406 582.375 859.515625 572.070312 851.804688 558.949219 C 844.144531 545.851562 840.339844 530.976562 840.339844 514.371094 L 840.339844 514.074219 C 840.339844 497.34375 844.144531 482.519531 851.804688 469.59375 C 859.515625 456.695312 870.191406 446.539062 883.832031 439.148438 C 897.472656 431.785156 913.238281 428.078125 931.179688 428.078125 C 949.21875 428.078125 965.03125 431.785156 978.625 439.148438 C 992.1875 446.539062 1002.789062 456.695312 1010.449219 469.59375 C 1018.085938 482.519531 1021.917969 497.34375 1021.917969 514.074219 L 1021.917969 514.371094 C 1021.917969 530.976562 1018.085938 545.851562 1010.449219 558.949219 C 1002.789062 572.070312 992.117188 582.375 978.425781 589.886719 C 964.785156 597.324219 949.019531 601.054688 931.179688 601.054688 Z M 931.179688 554.5 C 942.765625 554.5 952.058594 550.644531 959.050781 542.9375 C 966.09375 535.175781 969.628906 525.539062 969.628906 514.074219 L 969.628906 513.875 C 969.628906 502.410156 966.195312 492.996094 959.347656 485.605469 C 952.554688 478.242188 943.164062 474.535156 931.179688 474.535156 C 919.316406 474.535156 909.925781 478.242188 903.007812 485.605469 C 896.089844 492.996094 892.628906 502.410156 892.628906 513.875 L 892.628906 514.074219 C 892.628906 525.539062 896.113281 535.175781 903.105469 542.9375 C 910.148438 550.644531 919.515625 554.5 931.179688 554.5 Z M 931.179688 554.5 " fill-opacity="1" fill-rule="nonzero"/><path fill="#deff36" d="M 1104.886719 600.167969 C 1078.914062 600.167969 1054.476562 595.199219 1031.542969 585.242188 L 1045.183594 549.558594 C 1054.921875 553.585938 1064.507812 556.578125 1073.949219 558.554688 C 1083.363281 560.480469 1092.035156 561.421875 1099.941406 561.421875 C 1108.046875 561.421875 1114.523438 560.605469 1119.414062 558.949219 C 1124.359375 557.316406 1126.828125 554.179688 1126.828125 549.558594 C 1126.828125 546.394531 1125.148438 543.824219 1121.789062 541.847656 C 1118.476562 539.824219 1111.855469 537.476562 1101.921875 534.832031 L 1086.699219 530.679688 C 1070.09375 526.28125 1057.761719 519.882812 1049.730469 511.503906 C 1041.675781 503.078125 1037.671875 491.933594 1037.671875 478.09375 C 1037.671875 462.824219 1043.429688 450.691406 1054.96875 441.71875 C 1066.484375 432.773438 1083.140625 428.277344 1104.886719 428.277344 C 1117.464844 428.277344 1129.820312 429.613281 1141.953125 432.230469 C 1154.132812 434.800781 1164.316406 438.410156 1172.496094 443.003906 L 1157.765625 477.601562 C 1150.574219 473.917969 1142.691406 471.25 1134.144531 469.59375 C 1125.570312 467.890625 1117.957031 467.023438 1111.308594 467.023438 C 1104.835938 467.023438 1099.796875 467.714844 1096.1875 469.101562 C 1092.628906 470.484375 1090.851562 472.953125 1090.851562 476.511719 C 1090.851562 479.625 1092.53125 482.195312 1095.890625 484.222656 C 1099.300781 486.273438 1105.28125 488.375 1113.78125 490.550781 L 1124.257812 493.613281 C 1142.371094 498.628906 1155.714844 505.425781 1164.289062 513.976562 C 1172.839844 522.550781 1177.140625 533.199219 1177.140625 545.902344 C 1177.140625 582.078125 1153.046875 600.167969 1104.886719 600.167969 Z M 1104.886719 600.167969 " fill-opacity="1" fill-rule="nonzero"/><path fill="#deff36" d="M 1267.089844 601.054688 C 1256.933594 601.054688 1247.246094 600.019531 1238.03125 597.992188 C 1228.789062 595.964844 1220.535156 592.605469 1213.222656 587.910156 C 1205.957031 583.164062 1200.273438 576.714844 1196.121094 568.535156 C 1191.96875 560.308594 1189.894531 550.003906 1189.894531 537.597656 L 1189.894531 435 L 1241.886719 435 L 1241.886719 533.445312 C 1241.886719 541.949219 1244.109375 547.929688 1248.605469 551.339844 C 1253.152344 554.773438 1259.972656 556.476562 1269.066406 556.476562 C 1272.15625 556.476562 1275.640625 556.328125 1279.546875 555.984375 C 1283.425781 555.589844 1287.378906 554.996094 1291.40625 554.203125 L 1291.40625 435 L 1343.496094 435 L 1343.496094 592.160156 C 1334.453125 593.816406 1325.039062 595.273438 1315.226562 596.507812 C 1305.464844 597.820312 1296.347656 598.90625 1287.847656 599.769531 C 1279.347656 600.613281 1272.429688 601.054688 1267.089844 601.054688 Z M 1267.089844 601.054688 " fill-opacity="1" fill-rule="nonzero"/><path fill="#deff36" d="M 1045.070312 245.824219 C 1045.886719 216.121094 1046.898438 177.175781 1047.292969 156.765625 C 1047.367188 152.984375 1047.6875 151.207031 1047.910156 150.414062 C 1048.800781 150.117188 1051.050781 149.597656 1055.867188 149.597656 C 1059.425781 149.597656 1063.75 149.871094 1069.039062 150.4375 C 1115.695312 155.457031 1116.730469 159.855469 1118.042969 165.4375 C 1121.007812 178.066406 1133.363281 231.492188 1141.566406 266.976562 C 1142.28125 267.027344 1142.925781 267.027344 1143.691406 267.101562 C 1147.519531 267.445312 1151.773438 267.519531 1155.972656 267.59375 C 1147.816406 232.234375 1134.648438 175.347656 1131.582031 162.277344 C 1128.097656 147.449219 1120.042969 141.9375 1070.523438 136.625 C 1038.769531 133.214844 1033.726562 139.097656 1033.40625 156.519531 C 1033.011719 176.410156 1032.046875 213.648438 1031.230469 242.90625 C 1036.296875 243.550781 1040.992188 244.488281 1045.070312 245.824219 " fill-opacity="1" fill-rule="nonzero"/><path fill="#dc2a12" d="M 1060.589844 259.117188 C 1063.851562 270.066406 1071.511719 288.300781 1075.144531 292.652344 C 1076.15625 293.714844 1080.851562 296.234375 1101.804688 296.234375 C 1107.441406 296.234375 1110.160156 294.75 1111.589844 292.675781 C 1108.230469 283.457031 1098.445312 286.054688 1084.238281 289.339844 C 1076.996094 290.996094 1073.757812 267.839844 1071.113281 254.84375 C 1065.703125 228.277344 1068.445312 205.273438 1067.234375 197.292969 C 1066.050781 189.308594 1056.957031 190.472656 1052.1875 204.730469 C 1050.234375 210.5625 1051.59375 230.035156 1053.695312 249.976562 C 1057.054688 252.324219 1059.425781 255.3125 1060.589844 259.117188 " fill-opacity="1" fill-rule="nonzero"/><path fill="#dc2a12" d="M 1134.722656 248.640625 C 1132.078125 243.894531 1122.167969 244.367188 1112.605469 249.703125 C 1103.042969 255.066406 1097.433594 263.246094 1100.078125 267.988281 C 1101.980469 271.375 1107.5625 272.066406 1114.0625 270.289062 L 1117.347656 277.183594 C 1121.304688 271.128906 1127.109375 268.410156 1132.84375 267.394531 L 1129.878906 261.21875 C 1134.449219 256.769531 1136.550781 251.902344 1134.722656 248.640625 " fill-opacity="1" fill-rule="nonzero"/><path fill="#deff36" d="M 1045.390625 334.882812 C 1045.390625 347.558594 1035.109375 357.839844 1022.460938 357.839844 C 1009.78125 357.839844 999.527344 347.558594 999.527344 334.882812 C 999.527344 322.230469 1009.78125 311.949219 1022.460938 311.949219 C 1035.109375 311.949219 1045.390625 322.230469 1045.390625 334.882812 " fill-opacity="1" fill-rule="nonzero"/><g clip-path="url(#4ee6bd3a73)"><path fill="#deff36" d="M 1156.34375 371.183594 C 1136.328125 371.183594 1120.042969 354.898438 1120.042969 334.882812 C 1120.042969 314.867188 1136.328125 298.582031 1156.34375 298.582031 C 1176.359375 298.582031 1192.644531 314.867188 1192.644531 334.882812 C 1192.644531 354.898438 1176.359375 371.183594 1156.34375 371.183594 Z M 1022.460938 371.183594 C 1002.441406 371.183594 986.160156 354.898438 986.160156 334.882812 C 986.160156 314.867188 1002.441406 298.582031 1022.460938 298.582031 C 1042.476562 298.582031 1058.757812 314.867188 1058.757812 334.882812 C 1058.757812 354.898438 1042.476562 371.183594 1022.460938 371.183594 Z M 1190.519531 304.859375 C 1187.847656 293.515625 1182.832031 282.050781 1179.226562 279.628906 C 1173.417969 275.773438 1156.464844 277.578125 1142.828125 276.316406 C 1129.1875 275.03125 1123.996094 280.394531 1122.265625 289.980469 C 1120.5625 299.546875 1114.359375 305.5 1101.804688 305.5 C 1089.226562 305.5 1073.265625 304.882812 1068.027344 298.582031 C 1062.761719 292.28125 1054.582031 271.425781 1051.691406 261.785156 C 1047.984375 249.332031 1007.683594 250.839844 989.445312 251.0625 C 974.371094 251.234375 969.429688 273.847656 968.8125 283.53125 C 968.195312 293.195312 965.128906 327.839844 965.128906 327.839844 C 965.007812 331.050781 969.949219 332.804688 976.941406 333.746094 C 976.941406 334.117188 976.890625 334.511719 976.890625 334.882812 C 976.890625 360.011719 997.328125 380.449219 1022.460938 380.449219 C 1044.128906 380.449219 1062.269531 365.226562 1066.863281 344.9375 C 1077.738281 345.382812 1091.105469 345.65625 1107.589844 345.65625 C 1109.121094 345.65625 1110.601562 345.605469 1112.109375 345.582031 C 1116.929688 365.546875 1134.917969 380.449219 1156.34375 380.449219 C 1181.449219 380.449219 1201.910156 360.011719 1201.910156 334.882812 C 1201.910156 323.367188 1197.585938 312.890625 1190.519531 304.859375 " fill-opacity="1" fill-rule="nonzero"/></g><path fill="#deff36" d="M 1180.140625 334.882812 C 1180.140625 348.027344 1169.488281 358.703125 1156.34375 358.703125 C 1143.195312 358.703125 1132.546875 348.027344 1132.546875 334.882812 C 1132.546875 321.734375 1143.195312 311.085938 1156.34375 311.085938 C 1169.488281 311.085938 1180.140625 321.734375 1180.140625 334.882812 " fill-opacity="1" fill-rule="nonzero"/><g clip-path="url(#fbf35886b8)"><path fill="#deff36" d="M 1228.671875 344.890625 L 1214.585938 348.941406 L 1150.511719 126.988281 L 1164.621094 122.9375 L 1228.671875 344.890625 " fill-opacity="1" fill-rule="nonzero"/></g><path fill="#deff36" d="M 1328.355469 305.921875 L 1211.867188 339.550781 L 1214.585938 348.941406 L 1331.074219 315.335938 L 1328.355469 305.921875 " fill-opacity="1" fill-rule="nonzero"/><g clip-path="url(#179af6914c)"><path fill="#dc2a12" d="M 1346.863281 289.339844 L 1231.882812 322.527344 L 1206.382812 234.234375 L 1321.386719 201.046875 L 1346.863281 289.339844 " fill-opacity="1" fill-rule="nonzero"/></g><path fill="#dc2a12" d="M 1277.378906 204.507812 L 1203.9375 225.707031 L 1187.875 170.058594 L 1261.316406 148.859375 L 1277.378906 204.507812 " fill-opacity="1" fill-rule="nonzero"/></svg>