<svg xmlns="http://www.w3.org/2000/svg" xmlns:xlink="http://www.w3.org/1999/xlink" width="1920" zoomAndPan="magnify" viewBox="0 0 1440 809.999993" height="1080" preserveAspectRatio="xMidYMid meet" version="1.0"><defs><clipPath id="81de1d0fe8"><path d="M 948.523438 287 L 1174 287 L 1174 410.617188 L 948.523438 410.617188 Z M 948.523438 287 " clip-rule="nonzero"/></clipPath><clipPath id="a342e04099"><path d="M 1124 166.398438 L 1199 166.398438 L 1199 381 L 1124 381 Z M 1124 166.398438 " clip-rule="nonzero"/></clipPath></defs><rect x="-144" width="1728" fill="#ffffff" y="-80.999999" height="971.999992" fill-opacity="1"/><rect x="-144" width="1728" fill="#ffffff" y="-80.999999" height="971.999992" fill-opacity="1"/><rect x="-144" width="1728" fill="#ffffff" y="-80.999999" height="971.999992" fill-opacity="1"/><rect x="-144" width="1728" fill="#deff36" y="-80.999999" height="971.999992" fill-opacity="1"/><path fill="#040606" d="M 1024.410156 282.910156 C 1025.171875 254.742188 1026.15625 217.851562 1026.523438 198.507812 C 1026.585938 194.9375 1026.894531 193.234375 1027.097656 192.496094 C 1027.941406 192.207031 1030.074219 191.714844 1034.648438 191.714844 C 1038.011719 191.714844 1042.117188 191.984375 1047.140625 192.515625 C 1091.355469 197.253906 1092.339844 201.441406 1093.570312 206.734375 C 1096.378906 218.671875 1108.09375 269.328125 1115.871094 302.953125 C 1116.527344 302.992188 1117.164062 302.992188 1117.859375 303.054688 C 1121.492188 303.382812 1125.53125 303.484375 1129.511719 303.527344 C 1121.777344 270.023438 1109.304688 216.109375 1106.390625 203.71875 C 1103.089844 189.664062 1095.457031 184.453125 1048.539062 179.40625 C 1018.441406 176.1875 1013.660156 181.746094 1013.351562 198.261719 C 1012.984375 217.136719 1012.0625 252.402344 1011.300781 280.136719 C 1016.101562 280.753906 1020.535156 281.636719 1024.410156 282.910156 " fill-opacity="1" fill-rule="nonzero"/><path fill="#dc2a12" d="M 1039.101562 295.523438 C 1042.21875 305.886719 1049.460938 323.160156 1052.90625 327.304688 C 1053.871094 328.289062 1058.324219 330.667969 1078.164062 330.667969 C 1083.515625 330.667969 1086.101562 329.273438 1087.457031 327.304688 C 1084.253906 318.5625 1074.980469 321.027344 1061.523438 324.144531 C 1054.671875 325.722656 1051.59375 303.773438 1049.089844 291.441406 C 1043.960938 266.269531 1046.566406 244.484375 1045.417969 236.914062 C 1044.289062 229.363281 1035.675781 230.449219 1031.160156 243.949219 C 1029.292969 249.488281 1030.585938 267.933594 1032.597656 286.828125 C 1035.757812 289.0625 1038.035156 291.894531 1039.101562 295.523438 " fill-opacity="1" fill-rule="nonzero"/><path fill="#dc2a12" d="M 1109.386719 285.574219 C 1106.863281 281.082031 1097.46875 281.535156 1088.398438 286.601562 C 1079.351562 291.667969 1074.039062 299.421875 1076.542969 303.917969 C 1078.347656 307.136719 1083.621094 307.773438 1089.773438 306.089844 L 1092.914062 312.613281 C 1096.667969 306.890625 1102.164062 304.304688 1107.601562 303.339844 L 1104.792969 297.496094 C 1109.101562 293.269531 1111.109375 288.671875 1109.386719 285.574219 " fill-opacity="1" fill-rule="nonzero"/><path fill="#040606" d="M 1024.71875 367.308594 C 1024.71875 379.3125 1014.972656 389.054688 1002.972656 389.054688 C 990.972656 389.054688 981.226562 379.3125 981.226562 367.308594 C 981.226562 355.308594 990.972656 345.5625 1002.972656 345.5625 C 1014.972656 345.5625 1024.71875 355.308594 1024.71875 367.308594 " fill-opacity="1" fill-rule="nonzero"/><g clip-path="url(#81de1d0fe8)"><path fill="#040606" d="M 1129.863281 401.714844 C 1110.882812 401.714844 1095.457031 386.285156 1095.457031 367.308594 C 1095.457031 348.351562 1110.882812 332.90625 1129.863281 332.90625 C 1148.839844 332.90625 1164.265625 348.351562 1164.265625 367.308594 C 1164.265625 386.285156 1148.839844 401.714844 1129.863281 401.714844 Z M 1002.972656 401.714844 C 984.015625 401.714844 968.566406 386.285156 968.566406 367.308594 C 968.566406 348.351562 984.015625 332.90625 1002.972656 332.90625 C 1021.949219 332.90625 1037.378906 348.351562 1037.378906 367.308594 C 1037.378906 386.285156 1021.949219 401.714844 1002.972656 401.714844 Z M 1162.234375 338.855469 C 1159.730469 328.105469 1154.972656 317.230469 1151.546875 314.933594 C 1146.046875 311.28125 1129.984375 313.003906 1117.058594 311.792969 C 1104.113281 310.605469 1099.210938 315.671875 1097.570312 324.738281 C 1095.949219 333.828125 1090.0625 339.449219 1078.164062 339.449219 C 1066.261719 339.449219 1051.121094 338.894531 1046.15625 332.90625 C 1041.191406 326.933594 1033.4375 307.179688 1030.6875 298.027344 C 1027.160156 286.230469 988.980469 287.648438 971.6875 287.851562 C 957.40625 288.039062 952.730469 309.476562 952.132812 318.625 C 951.558594 327.796875 948.648438 360.640625 948.648438 360.640625 C 948.523438 363.699219 953.222656 365.339844 959.847656 366.222656 C 959.847656 366.589844 959.808594 366.941406 959.808594 367.308594 C 959.808594 391.128906 979.175781 410.496094 1002.972656 410.496094 C 1023.507812 410.496094 1040.699219 396.074219 1045.070312 376.847656 C 1055.371094 377.257812 1068.046875 377.503906 1083.660156 377.503906 C 1085.117188 377.503906 1086.511719 377.484375 1087.925781 377.464844 C 1092.523438 396.378906 1109.550781 410.496094 1129.863281 410.496094 C 1153.660156 410.496094 1173.046875 391.128906 1173.046875 367.308594 C 1173.046875 356.394531 1168.945312 346.445312 1162.234375 338.855469 " fill-opacity="1" fill-rule="nonzero"/></g><path fill="#040606" d="M 1152.429688 367.308594 C 1152.429688 379.78125 1142.316406 389.875 1129.863281 389.875 C 1117.410156 389.875 1107.292969 379.78125 1107.292969 367.308594 C 1107.292969 354.855469 1117.410156 344.742188 1129.863281 344.742188 C 1142.316406 344.742188 1152.429688 354.855469 1152.429688 367.308594 " fill-opacity="1" fill-rule="nonzero"/><g clip-path="url(#a342e04099)"><path fill="#040606" d="M 1198.425781 376.789062 L 1185.070312 380.644531 L 1124.34375 170.296875 L 1137.699219 166.441406 L 1198.425781 376.789062 " fill-opacity="1" fill-rule="nonzero"/></g><path fill="#040606" d="M 1292.878906 339.878906 L 1182.484375 371.742188 L 1185.070312 380.644531 L 1295.441406 348.785156 L 1292.878906 339.878906 " fill-opacity="1" fill-rule="nonzero"/><path fill="#dc2a12" d="M 1310.441406 324.144531 L 1201.441406 355.59375 L 1177.292969 271.933594 L 1286.273438 240.460938 L 1310.441406 324.144531 " fill-opacity="1" fill-rule="nonzero"/><path fill="#dc2a12" d="M 1244.5625 243.742188 L 1174.953125 263.847656 L 1159.730469 211.105469 L 1229.339844 191.019531 L 1244.5625 243.742188 " fill-opacity="1" fill-rule="nonzero"/><path fill="#191919" d="M 158.613281 391.960938 L 109.292969 391.960938 L 109.292969 240.554688 C 117.871094 239.035156 126.792969 237.660156 136.046875 236.449219 C 145.339844 235.199219 154.019531 234.214844 162.058594 233.496094 C 170.101562 232.800781 176.625 232.429688 181.671875 232.429688 C 191.292969 232.429688 200.484375 233.375 209.246094 235.21875 C 217.984375 237.023438 225.824219 240.226562 232.714844 244.820312 C 239.648438 249.375 245.066406 255.488281 248.964844 263.203125 C 252.902344 270.875 254.871094 280.640625 254.871094 292.5 L 254.871094 391.960938 L 205.554688 391.960938 L 205.554688 298.324219 C 205.554688 290.449219 203.441406 284.847656 199.234375 281.503906 C 195.070312 278.179688 188.605469 276.496094 179.867188 276.496094 C 174.125 276.496094 167.023438 277.214844 158.613281 278.628906 Z M 158.613281 391.960938 " fill-opacity="1" fill-rule="nonzero"/><path fill="#191919" d="M 342.960938 233.496094 C 357.671875 233.496094 370.390625 235.382812 381.121094 239.160156 C 391.890625 242.890625 400.199219 249.230469 406.066406 258.195312 C 411.914062 267.121094 414.847656 279.429688 414.847656 295.125 L 414.847656 388.839844 C 404.386719 391.097656 392.734375 392.882812 379.890625 394.257812 C 367.027344 395.671875 354.984375 396.390625 343.78125 396.390625 C 328.394531 396.390625 314.976562 394.832031 303.488281 391.714844 C 292.042969 388.554688 283.179688 383.34375 276.902344 376.121094 C 270.601562 368.859375 267.464844 359.011719 267.464844 346.578125 L 267.464844 346.332031 C 267.464844 329.878906 273.660156 317.835938 286.09375 310.226562 C 298.503906 302.632812 314.753906 298.816406 334.835938 298.816406 C 340.089844 298.816406 345.199219 298.960938 350.183594 299.226562 C 355.148438 299.515625 360.378906 300.089844 365.855469 300.953125 L 365.855469 296.683594 C 365.855469 288.3125 362.820312 282.527344 356.75 279.289062 C 350.714844 276.066406 342.550781 274.445312 332.210938 274.445312 C 325.03125 274.445312 316.476562 275.265625 306.527344 276.90625 C 296.554688 278.546875 287.363281 280.886719 278.953125 283.882812 L 290.277344 240.882812 C 293.765625 239.628906 298.359375 238.480469 304.0625 237.433594 C 309.746094 236.410156 315.984375 235.507812 322.773438 234.726562 C 329.605469 233.90625 336.335938 233.496094 342.960938 233.496094 Z M 318.097656 343.132812 L 318.097656 343.460938 C 318.097656 349.039062 320.578125 353.144531 325.5625 355.769531 C 330.527344 358.394531 337.320312 359.707031 345.914062 359.707031 C 349.035156 359.707031 352.277344 359.585938 355.679688 359.296875 C 359.128906 359.03125 362.511719 358.722656 365.855469 358.394531 L 365.855469 329.015625 C 362.511719 328.320312 359.046875 327.828125 355.433594 327.539062 C 351.867188 327.273438 348.707031 327.128906 345.914062 327.128906 C 337.320312 327.128906 330.527344 328.339844 325.5625 330.742188 C 320.578125 333.101562 318.097656 337.222656 318.097656 343.132812 Z M 318.097656 343.132812 " fill-opacity="1" fill-rule="nonzero"/><path fill="#191919" d="M 430.296875 179.171875 L 479.617188 179.171875 L 479.617188 391.960938 L 430.296875 391.960938 Z M 430.296875 179.171875 " fill-opacity="1" fill-rule="nonzero"/><path fill="#191919" d="M 567.730469 396.390625 C 557.761719 396.390625 548.773438 395.855469 540.734375 394.832031 C 532.691406 393.785156 525.078125 392.042969 517.917969 389.578125 C 510.738281 387.117188 503.3125 383.976562 495.597656 380.140625 L 495.597656 179.171875 L 544.917969 179.171875 L 544.917969 235.628906 C 548.960938 234.769531 553.042969 234.03125 557.144531 233.414062 C 561.25 232.757812 565.472656 232.429688 569.863281 232.429688 C 587.363281 232.429688 602.363281 235.9375 614.835938 242.933594 C 627.351562 249.949219 636.992188 259.632812 643.722656 271.984375 C 650.449219 284.292969 653.816406 298.304688 653.816406 314 L 653.816406 314.574219 C 653.816406 330.332031 650.304688 344.363281 643.3125 356.671875 C 636.292969 368.980469 626.363281 378.707031 613.523438 385.804688 C 600.660156 392.863281 585.394531 396.390625 567.730469 396.390625 Z M 567.730469 352.324219 C 579.652344 352.324219 588.699219 348.710938 594.894531 341.492188 C 601.128906 334.226562 604.25 325.242188 604.25 314.574219 L 604.25 314 C 604.25 303.167969 601.128906 294.222656 594.894531 287.164062 C 588.699219 280.066406 579.652344 276.496094 567.730469 276.496094 C 563.894531 276.496094 560.015625 276.824219 556.078125 277.480469 C 552.140625 278.097656 548.40625 278.835938 544.917969 279.699219 L 544.917969 349.203125 C 551.75 351.296875 559.359375 352.324219 567.730469 352.324219 Z M 567.730469 352.324219 " fill-opacity="1" fill-rule="nonzero"/><path fill="#191919" d="M 739.527344 396.390625 C 729.886719 396.390625 720.695312 395.425781 711.957031 393.519531 C 703.195312 391.609375 695.378906 388.429688 688.484375 384 C 681.59375 379.527344 676.175781 373.390625 672.238281 365.617188 C 668.296875 357.800781 666.328125 348.035156 666.328125 336.320312 L 666.328125 238.996094 L 715.648438 238.996094 L 715.648438 332.382812 C 715.648438 340.425781 717.78125 346.085938 722.050781 349.367188 C 726.355469 352.609375 732.800781 354.210938 741.332031 354.210938 C 744.328125 354.210938 747.671875 354.046875 751.34375 353.71875 C 754.996094 353.347656 758.75 352.792969 762.589844 352.078125 L 762.589844 238.996094 L 811.90625 238.996094 L 811.90625 388.019531 C 803.371094 389.621094 794.449219 391.015625 785.15625 392.207031 C 775.902344 393.457031 767.265625 394.460938 759.222656 395.242188 C 751.179688 396 744.617188 396.390625 739.527344 396.390625 Z M 739.527344 396.390625 " fill-opacity="1" fill-rule="nonzero"/><path fill="#191919" d="M 876.9375 391.960938 L 827.617188 391.960938 L 827.617188 244.738281 C 835.496094 243.222656 843.621094 242.011719 851.988281 241.128906 C 860.402344 240.265625 868.28125 239.691406 875.625 239.40625 C 882.949219 239.136719 889 238.996094 893.761719 238.996094 L 924.453125 238.996094 L 924.453125 284.621094 L 901.308594 284.621094 C 899.933594 284.621094 897.453125 284.746094 893.84375 284.949219 C 890.273438 285.113281 886.785156 285.277344 883.335938 285.441406 C 879.933594 285.605469 877.796875 285.769531 876.9375 285.933594 Z M 876.9375 391.960938 " fill-opacity="1" fill-rule="nonzero"/><path fill="#191919" d="M 407.488281 616.304688 C 390.03125 616.304688 374.871094 612.777344 362.027344 605.71875 C 349.164062 598.621094 339.171875 588.894531 332.074219 576.585938 C 325.015625 564.277344 321.488281 550.246094 321.488281 534.488281 L 321.488281 533.914062 C 321.488281 518.21875 324.851562 504.207031 331.582031 491.898438 C 338.3125 479.546875 347.914062 469.863281 360.386719 462.847656 C 372.898438 455.851562 387.917969 452.34375 405.4375 452.34375 C 409.808594 452.34375 414.074219 452.671875 418.238281 453.328125 C 422.445312 453.945312 426.464844 454.683594 430.304688 455.542969 L 430.304688 399.085938 L 479.621094 399.085938 L 479.621094 600.054688 C 468.460938 606.027344 457.402344 610.210938 446.46875 612.613281 C 435.515625 615.074219 422.527344 616.304688 407.488281 616.304688 Z M 407.488281 572.238281 C 415.902344 572.238281 423.511719 571.210938 430.304688 569.117188 L 430.304688 499.613281 C 427.019531 498.75 423.347656 498.011719 419.304688 497.394531 C 415.304688 496.738281 411.367188 496.410156 407.488281 496.410156 C 395.609375 496.410156 386.5625 499.980469 380.328125 507.078125 C 374.132812 514.136719 371.054688 523.082031 371.054688 533.914062 L 371.054688 534.488281 C 371.054688 545.15625 374.132812 554.140625 380.328125 561.40625 C 386.5625 568.625 395.609375 572.238281 407.488281 572.238281 Z M 407.488281 572.238281 " fill-opacity="1" fill-rule="nonzero"/><path fill="#191919" d="M 653.554688 541.546875 L 653.554688 544.171875 L 543.34375 544.171875 C 545.640625 552.378906 549.949219 559.3125 556.308594 564.933594 C 562.710938 570.515625 570.710938 573.304688 580.355469 573.304688 C 589.257812 573.304688 597.605469 571.910156 605.382812 569.117188 C 613.136719 566.328125 619.765625 563.003906 625.242188 559.105469 L 646.742188 597.183594 C 638.699219 602.066406 629.140625 606.4375 618.101562 610.3125 C 607.105469 614.128906 593.894531 616.058594 578.464844 616.058594 C 561.007812 616.058594 545.804688 612.652344 532.839844 605.882812 C 519.914062 599.050781 509.902344 589.46875 502.804688 577.160156 C 495.746094 564.808594 492.21875 550.574219 492.21875 534.488281 L 492.21875 533.914062 C 492.21875 517.828125 495.519531 503.714844 502.148438 491.570312 C 508.816406 479.425781 518.253906 469.90625 530.460938 463.011719 C 542.707031 456.078125 557.066406 452.589844 573.542969 452.589844 C 589.953125 452.589844 604.089844 456.078125 615.96875 463.011719 C 627.886719 469.90625 637.140625 480 643.707031 493.292969 C 650.269531 506.585938 653.554688 522.671875 653.554688 541.546875 Z M 572.96875 491.488281 C 565.460938 491.488281 559.121094 493.992188 553.929688 498.957031 C 548.78125 503.941406 545.25 510.09375 543.34375 517.417969 L 603.660156 517.417969 C 602.285156 509.707031 598.921875 503.46875 593.566406 498.710938 C 588.253906 493.910156 581.378906 491.488281 572.96875 491.488281 Z M 572.96875 491.488281 " fill-opacity="1" fill-rule="nonzero"/><path fill="#191919" d="M 715.386719 669.5625 L 666.066406 669.5625 L 666.066406 468.59375 C 675.300781 464.613281 685.925781 460.917969 697.90625 457.515625 C 709.886719 454.066406 723.304688 452.34375 738.199219 452.34375 C 755.699219 452.34375 770.882812 455.914062 783.746094 463.011719 C 796.585938 470.070312 806.558594 479.730469 813.617188 491.980469 C 820.714844 504.25 824.285156 518.320312 824.285156 534.242188 L 824.285156 534.734375 C 824.285156 550.492188 820.917969 564.503906 814.191406 576.75 C 807.460938 588.957031 797.820312 598.558594 785.304688 605.554688 C 772.832031 612.550781 757.832031 616.058594 740.332031 616.058594 C 735.941406 616.058594 731.71875 615.75 727.613281 615.15625 C 723.511719 614.539062 719.429688 613.800781 715.386719 612.941406 Z M 738.199219 571.992188 C 750.121094 571.992188 759.167969 568.460938 765.363281 561.40625 C 771.597656 554.304688 774.71875 545.402344 774.71875 534.734375 L 774.71875 534.242188 C 774.71875 523.367188 771.597656 514.34375 765.363281 507.160156 C 759.167969 500 750.121094 496.410156 738.199219 496.410156 C 734.199219 496.410156 730.261719 496.636719 726.382812 497.066406 C 722.546875 497.519531 718.875 498.257812 715.386719 499.285156 L 715.386719 568.871094 C 718.875 569.527344 722.609375 570.226562 726.546875 570.925781 C 730.484375 571.640625 734.363281 571.992188 738.199219 571.992188 Z M 738.199219 571.992188 " fill-opacity="1" fill-rule="nonzero"/><path fill="#191919" d="M 919.679688 616.304688 C 902.714844 616.304688 887.757812 612.777344 874.792969 605.71875 C 861.867188 598.621094 851.773438 588.855469 844.511719 576.421875 C 837.289062 564.011719 833.679688 549.957031 833.679688 534.242188 L 833.679688 533.914062 C 833.679688 518.054688 837.289062 504.003906 844.511719 491.734375 C 851.773438 479.484375 861.867188 469.863281 874.792969 462.847656 C 887.757812 455.851562 902.714844 452.34375 919.679688 452.34375 C 936.851562 452.34375 951.871094 455.851562 964.734375 462.847656 C 977.574219 469.863281 987.628906 479.484375 994.851562 491.734375 C 1002.113281 504.003906 1005.765625 518.054688 1005.765625 533.914062 L 1005.765625 534.242188 C 1005.765625 549.957031 1002.113281 564.011719 994.851562 576.421875 C 987.628906 588.855469 977.535156 598.621094 964.570312 605.71875 C 951.601562 612.777344 936.625 616.304688 919.679688 616.304688 Z M 919.679688 572.238281 C 930.71875 572.238281 939.558594 568.585938 946.1875 561.242188 C 952.855469 553.917969 956.199219 544.808594 956.199219 533.914062 L 956.199219 533.667969 C 956.199219 522.835938 952.9375 513.933594 946.433594 506.914062 C 939.96875 499.917969 931.046875 496.410156 919.679688 496.410156 C 908.519531 496.410156 899.65625 499.917969 893.09375 506.914062 C 886.527344 513.933594 883.246094 522.835938 883.246094 533.667969 L 883.246094 533.914062 C 883.246094 544.808594 886.546875 553.917969 893.175781 561.242188 C 899.84375 568.585938 908.683594 572.238281 919.679688 572.238281 Z M 919.679688 572.238281 " fill-opacity="1" fill-rule="nonzero"/><path fill="#191919" d="M 1084.421875 615.566406 C 1059.742188 615.566406 1036.539062 610.847656 1014.835938 601.371094 L 1027.71875 567.558594 C 1037.011719 571.394531 1046.121094 574.246094 1055.042969 576.09375 C 1063.949219 577.898438 1072.15625 578.800781 1079.664062 578.800781 C 1087.378906 578.800781 1093.53125 578.042969 1098.128906 576.503906 C 1102.765625 574.925781 1105.101562 571.949219 1105.101562 567.558594 C 1105.101562 564.5625 1103.503906 562.101562 1100.34375 560.175781 C 1097.226562 558.265625 1090.945312 556.070312 1081.550781 553.609375 L 1067.109375 549.671875 C 1051.351562 545.527344 1039.65625 539.472656 1032.066406 531.535156 C 1024.457031 523.554688 1020.660156 512.988281 1020.660156 499.859375 C 1020.660156 485.375 1026.097656 473.886719 1036.992188 465.390625 C 1047.925781 456.855469 1063.742188 452.589844 1084.421875 452.589844 C 1096.28125 452.589844 1107.996094 453.820312 1119.546875 456.28125 C 1131.074219 458.746094 1140.71875 462.171875 1148.433594 466.539062 L 1134.480469 499.285156 C 1127.691406 495.835938 1120.222656 493.335938 1112.078125 491.734375 C 1103.914062 490.152344 1096.691406 489.355469 1090.414062 489.355469 C 1084.28125 489.355469 1079.519531 490.011719 1076.132812 491.324219 C 1072.730469 492.636719 1071.046875 494.976562 1071.046875 498.296875 C 1071.046875 501.253906 1072.648438 503.695312 1075.886719 505.601562 C 1079.109375 507.53125 1084.75 509.542969 1092.792969 511.675781 L 1102.722656 514.546875 C 1119.894531 519.265625 1132.53125 525.6875 1140.636719 533.832031 C 1148.78125 541.996094 1152.863281 552.089844 1152.863281 564.113281 C 1152.863281 598.414062 1130.050781 615.566406 1084.421875 615.566406 Z M 1084.421875 615.566406 " fill-opacity="1" fill-rule="nonzero"/><path fill="#191919" d="M 1238.082031 616.304688 C 1228.441406 616.304688 1219.25 615.339844 1210.507812 613.433594 C 1201.75 611.523438 1193.933594 608.34375 1187.039062 603.914062 C 1180.144531 599.441406 1174.730469 593.308594 1170.792969 585.53125 C 1166.851562 577.714844 1164.882812 567.949219 1164.882812 556.234375 L 1164.882812 458.910156 L 1214.203125 458.910156 L 1214.203125 552.296875 C 1214.203125 560.339844 1216.335938 566 1220.601562 569.28125 C 1224.910156 572.523438 1231.351562 574.125 1239.886719 574.125 C 1242.882812 574.125 1246.226562 573.960938 1249.898438 573.632812 C 1253.550781 573.261719 1257.304688 572.710938 1261.140625 571.992188 L 1261.140625 458.910156 L 1310.460938 458.910156 L 1310.460938 607.933594 C 1301.925781 609.535156 1293.003906 610.929688 1283.710938 612.121094 C 1274.457031 613.371094 1265.820312 614.375 1257.777344 615.15625 C 1249.734375 615.914062 1243.171875 616.304688 1238.082031 616.304688 Z M 1238.082031 616.304688 " fill-opacity="1" fill-rule="nonzero"/></svg>