<svg xmlns="http://www.w3.org/2000/svg" viewBox="0 0 512 512">
  <rect width="512" height="512" fill="#191919"/>
  <path fill="#DEFF36" d="M256 80c-97.2 0-176 78.8-176 176s78.8 176 176 176 176-78.8 176-176S353.2 80 256 80zm0 320c-79.5 0-144-64.5-144-144s64.5-144 144-144 144 64.5 144 144-64.5 144-144 144z"/>
  <path fill="#DEFF36" d="M256 160c-53 0-96 43-96 96s43 96 96 96 96-43 96-96-43-96-96-96zm0 160c-35.3 0-64-28.7-64-64s28.7-64 64-64 64 28.7 64 64-28.7 64-64 64z"/>
  <circle fill="#DEFF36" cx="256" cy="256" r="32"/>
</svg>
